<?xml version="1.0" encoding="UTF-8" standalone="no"?>
<!-- Created with Inkscape (http://www.inkscape.org/) -->

<svg
   xmlns:dc="http://purl.org/dc/elements/1.1/"
   xmlns:cc="http://creativecommons.org/ns#"
   xmlns:rdf="http://www.w3.org/1999/02/22-rdf-syntax-ns#"
   xmlns:svg="http://www.w3.org/2000/svg"
   xmlns="http://www.w3.org/2000/svg"
   xmlns:sodipodi="http://sodipodi.sourceforge.net/DTD/sodipodi-0.dtd"
   xmlns:inkscape="http://www.inkscape.org/namespaces/inkscape"
   id="svg8373"
   version="1.1"
   inkscape:version="0.91 r13725"
   xml:space="preserve"
   width="903.75"
   height="580"
   viewBox="0 0 903.75 580"
   sodipodi:docname="Coalescent_tree.svg"><metadata
     id="metadata8379"><rdf:RDF><cc:Work
         rdf:about=""><dc:format>image/svg+xml</dc:format><dc:type
           rdf:resource="http://purl.org/dc/dcmitype/StillImage" /><dc:title></dc:title></cc:Work></rdf:RDF></metadata><defs
     id="defs8377"><clipPath
       clipPathUnits="userSpaceOnUse"
       id="clipPath8391"><path
         d="M 0,0 723,0 723,464 0,464 0,0 Z"
         id="path8393"
         inkscape:connector-curvature="0" /></clipPath><clipPath
       clipPathUnits="userSpaceOnUse"
       id="clipPath8399"><path
         d="M 0,464 0,0 723,0 723,464 0,464 Z"
         id="path8401"
         inkscape:connector-curvature="0" /></clipPath></defs><sodipodi:namedview
     pagecolor="#ffffff"
     bordercolor="#666666"
     borderopacity="1"
     objecttolerance="10"
     gridtolerance="10"
     guidetolerance="10"
     inkscape:pageopacity="0"
     inkscape:pageshadow="2"
     inkscape:window-width="1918"
     inkscape:window-height="1042"
     id="namedview8375"
     showgrid="false"
     inkscape:zoom="0.8137931"
     inkscape:cx="378.83276"
     inkscape:cy="265.63092"
     inkscape:window-x="1920"
     inkscape:window-y="138"
     inkscape:window-maximized="0"
     inkscape:current-layer="g8381" /><g
     id="g8381"
     inkscape:groupmode="layer"
     inkscape:label="Coalescent_tree"
     transform="matrix(1.25,0,0,-1.25,0,580)"><g
       id="g8383" /><path
       d="m 690.37,124.95 0,-11.9 0,-11.89 26.63,0 0,23.79 -26.63,0 z"
       style="fill:#000000;fill-opacity:0;fill-rule:nonzero;stroke:none"
       id="path8407"
       inkscape:connector-curvature="0" /><path
       d="m 700.91,208.21 0,-23.79 0,-23.79 5.75,0 0,11.9 10.34,0 0,23.79 -15.06,0 0,11.89 -1.03,0 z"
       style="fill:#000000;fill-opacity:0;fill-rule:nonzero;stroke:none"
       id="path8409"
       inkscape:connector-curvature="0" /><path
       d="m 709.2,410.42 0,-11.89 0,-11.9 7.8,0 0,23.79 -7.8,0 z"
       style="fill:#000000;fill-opacity:0;fill-rule:nonzero;stroke:none"
       id="path8411"
       inkscape:connector-curvature="0" /><path
       d="m 609.26,458 0,-20.82 0,-20.81 92.42,0 0,17.84 15.32,0 0,23.79 -107.74,0 z"
       style="fill:#000000;fill-opacity:0;fill-rule:nonzero;stroke:none"
       id="path8413"
       inkscape:connector-curvature="0" /><path
       d="m 691.57,362.84 0,-11.89 0,-11.9 25.43,0 0,23.79 -25.43,0 z"
       style="fill:#000000;fill-opacity:0;fill-rule:nonzero;stroke:none"
       id="path8415"
       inkscape:connector-curvature="0" /><path
       d="m 706.66,172.53 0,-11.9 0,-11.89 10.34,0 0,23.79 -10.34,0 z"
       style="fill:#000000;fill-opacity:0;fill-rule:nonzero;stroke:none"
       id="path8417"
       inkscape:connector-curvature="0" /><path
       d="m 701.94,220.11 0,-11.9 0,-11.89 15.06,0 0,23.79 -15.06,0 z"
       style="fill:#000000;fill-opacity:0;fill-rule:nonzero;stroke:none"
       id="path8419"
       inkscape:connector-curvature="0" /><path
       d="m 701.68,434.21 0,-17.84 0,-17.84 7.52,0 0,11.89 7.8,0 0,23.79 -15.32,0 z"
       style="fill:#000000;fill-opacity:0;fill-rule:nonzero;stroke:none"
       id="path8421"
       inkscape:connector-curvature="0" /><path
       d="m 714.21,315.26 0,-11.89 0,-11.9 2.79,0 0,23.79 -2.79,0 z"
       style="fill:#000000;fill-opacity:0;fill-rule:nonzero;stroke:none"
       id="path8423"
       inkscape:connector-curvature="0" /><path
       d="m 668.68,279.58 0,-47.58 0,-47.58 32.23,0 0,23.79 1.03,0 0,11.9 15.06,0 0,23.78 -20.28,0 0,11.9 -3.1,0 0,23.79 -24.94,0 z"
       style="fill:#000000;fill-opacity:0;fill-rule:nonzero;stroke:none"
       id="path8425"
       inkscape:connector-curvature="0" /><path
       d="m 638.97,53.58 0,-17.84 0,-17.85 57.6,0 0,11.9 20.43,0 0,23.79 -78.03,0 z"
       style="fill:#000000;fill-opacity:0;fill-rule:nonzero;stroke:none"
       id="path8427"
       inkscape:connector-curvature="0" /><path
       d="m 13.04,364.33 0,-149.43 0,-149.43 277.38,0 0,29.74 104.37,0 0,17.84 295.58,0 0,11.9 26.63,0 0,23.79 -10.34,0 0,11.89 -5.75,0 0,23.79 -32.23,0 0,47.58 -14.56,0 0,59.47 -194.76,0 0,72.86 -446.32,0 z"
       style="fill:#000000;fill-opacity:0;fill-rule:nonzero;stroke:none"
       id="path8429"
       inkscape:connector-curvature="0" /><path
       d="m 459.36,437.18 0,-72.85 0,-72.86 194.76,0 0,59.48 37.45,0 0,11.89 25.43,0 0,23.79 -7.8,0 0,11.9 -7.52,0 0,17.84 -92.42,0 0,20.81 -149.9,0 z"
       style="fill:#000000;fill-opacity:0;fill-rule:nonzero;stroke:none"
       id="path8431"
       inkscape:connector-curvature="0" /><path
       d="m 696.57,29.79 0,-11.9 0,-11.89 20.43,0 0,23.79 -20.43,0 z"
       style="fill:#000000;fill-opacity:0;fill-rule:nonzero;stroke:none"
       id="path8433"
       inkscape:connector-curvature="0" /><path
       d="m 693.62,303.37 0,-23.79 0,-23.79 3.1,0 0,11.89 20.28,0 0,23.79 -2.79,0 0,11.9 -20.59,0 z"
       style="fill:#000000;fill-opacity:0;fill-rule:nonzero;stroke:none"
       id="path8435"
       inkscape:connector-curvature="0" /><path
       d="m 290.42,95.21 0,-29.74 0,-29.73 348.55,0 0,17.84 78.03,0 0,23.79 -322.21,0 0,17.84 -104.37,0 z"
       style="fill:#000000;fill-opacity:0;fill-rule:nonzero;stroke:none"
       id="path8437"
       inkscape:connector-curvature="0" /><path
       d="m 654.12,350.95 0,-59.48 0,-59.47 14.56,0 0,47.58 24.94,0 0,23.79 20.59,0 0,11.89 2.79,0 0,23.79 -25.43,0 0,11.9 -37.45,0 z"
       style="fill:#000000;fill-opacity:0;fill-rule:nonzero;stroke:none"
       id="path8439"
       inkscape:connector-curvature="0" /><path
       d="m 394.79,113.05 0,-17.84 0,-17.84 322.21,0 0,23.79 -26.63,0 0,11.89 -295.58,0 z"
       style="fill:#000000;fill-opacity:0;fill-rule:nonzero;stroke:none"
       id="path8441"
       inkscape:connector-curvature="0" /><path
       d="m 696.72,267.68 0,-11.89 0,-11.9 20.28,0 0,23.79 -20.28,0 z"
       style="fill:#000000;fill-opacity:0;fill-rule:nonzero;stroke:none"
       id="path8443"
       inkscape:connector-curvature="0" /><path
       d="m 690.37,113.05 -295.58,0 0,-17.84"
       style="fill:none;stroke:#000000;stroke-width:1;stroke-linecap:round;stroke-linejoin:round;stroke-miterlimit:10;stroke-dasharray:none;stroke-opacity:1"
       id="path8445"
       inkscape:connector-curvature="0" /><path
       d="m 717,362.84 -25.43,0 0,-11.89"
       style="fill:none;stroke:#000000;stroke-width:1;stroke-linecap:round;stroke-linejoin:round;stroke-miterlimit:10;stroke-dasharray:none;stroke-opacity:1"
       id="path8447"
       inkscape:connector-curvature="0" /><path
       d="m 700.91,184.42 -32.23,0 0,47.58"
       style="fill:none;stroke:#000000;stroke-width:1;stroke-linecap:round;stroke-linejoin:round;stroke-miterlimit:10;stroke-dasharray:none;stroke-opacity:1"
       id="path8449"
       inkscape:connector-curvature="0" /><path
       d="m 717,315.26 -2.79,0 0,-11.89"
       style="fill:none;stroke:#000000;stroke-width:1;stroke-linecap:round;stroke-linejoin:round;stroke-miterlimit:10;stroke-dasharray:none;stroke-opacity:1"
       id="path8451"
       inkscape:connector-curvature="0" /><path
       d="m 717,101.16 -26.63,0 0,11.89"
       style="fill:none;stroke:#000000;stroke-width:1;stroke-linecap:round;stroke-linejoin:round;stroke-miterlimit:10;stroke-dasharray:none;stroke-opacity:1"
       id="path8453"
       inkscape:connector-curvature="0" /><path
       d="m 701.94,208.21 -1.03,0 0,-23.79"
       style="fill:none;stroke:#000000;stroke-width:1;stroke-linecap:round;stroke-linejoin:round;stroke-miterlimit:10;stroke-dasharray:none;stroke-opacity:1"
       id="path8455"
       inkscape:connector-curvature="0" /><path
       d="m 701.68,416.37 -92.42,0 0,20.81"
       style="fill:none;stroke:#000000;stroke-width:1;stroke-linecap:round;stroke-linejoin:round;stroke-miterlimit:10;stroke-dasharray:none;stroke-opacity:1"
       id="path8457"
       inkscape:connector-curvature="0" /><path
       d="m 714.21,303.37 -20.59,0 0,-23.79"
       style="fill:none;stroke:#000000;stroke-width:1;stroke-linecap:round;stroke-linejoin:round;stroke-miterlimit:10;stroke-dasharray:none;stroke-opacity:1"
       id="path8459"
       inkscape:connector-curvature="0" /><path
       d="m 668.68,232 -14.56,0 0,59.47"
       style="fill:none;stroke:#000000;stroke-width:1;stroke-linecap:round;stroke-linejoin:round;stroke-miterlimit:10;stroke-dasharray:none;stroke-opacity:1"
       id="path8461"
       inkscape:connector-curvature="0" /><path
       d="m 6,214.9 7.04,0"
       style="fill:none;stroke:#000000;stroke-width:1;stroke-linecap:round;stroke-linejoin:round;stroke-miterlimit:10;stroke-dasharray:none;stroke-opacity:1"
       id="path8463"
       inkscape:connector-curvature="0" /><path
       d="m 459.36,364.33 -446.32,0 0,-149.43"
       style="fill:none;stroke:#000000;stroke-width:1;stroke-linecap:round;stroke-linejoin:round;stroke-miterlimit:10;stroke-dasharray:none;stroke-opacity:1"
       id="path8465"
       inkscape:connector-curvature="0" /><path
       d="m 717,434.21 -15.32,0 0,-17.84"
       style="fill:none;stroke:#000000;stroke-width:1;stroke-linecap:round;stroke-linejoin:round;stroke-miterlimit:10;stroke-dasharray:none;stroke-opacity:1"
       id="path8467"
       inkscape:connector-curvature="0" /><path
       d="m 717,291.47 -2.79,0 0,11.9"
       style="fill:none;stroke:#000000;stroke-width:1;stroke-linecap:round;stroke-linejoin:round;stroke-miterlimit:10;stroke-dasharray:none;stroke-opacity:1"
       id="path8469"
       inkscape:connector-curvature="0" /><path
       d="m 693.62,279.58 -24.94,0 0,-47.58"
       style="fill:none;stroke:#000000;stroke-width:1;stroke-linecap:round;stroke-linejoin:round;stroke-miterlimit:10;stroke-dasharray:none;stroke-opacity:1"
       id="path8471"
       inkscape:connector-curvature="0" /><path
       d="m 717,339.05 -25.43,0 0,11.9"
       style="fill:none;stroke:#000000;stroke-width:1;stroke-linecap:round;stroke-linejoin:round;stroke-miterlimit:10;stroke-dasharray:none;stroke-opacity:1"
       id="path8473"
       inkscape:connector-curvature="0" /><path
       d="m 717,53.58 -78.03,0 0,-17.84"
       style="fill:none;stroke:#000000;stroke-width:1;stroke-linecap:round;stroke-linejoin:round;stroke-miterlimit:10;stroke-dasharray:none;stroke-opacity:1"
       id="path8475"
       inkscape:connector-curvature="0" /><path
       d="m 696.72,255.79 -3.1,0 0,23.79"
       style="fill:none;stroke:#000000;stroke-width:1;stroke-linecap:round;stroke-linejoin:round;stroke-miterlimit:10;stroke-dasharray:none;stroke-opacity:1"
       id="path8477"
       inkscape:connector-curvature="0" /><path
       d="m 717,386.63 -7.8,0 0,11.9"
       style="fill:none;stroke:#000000;stroke-width:1;stroke-linecap:round;stroke-linejoin:round;stroke-miterlimit:10;stroke-dasharray:none;stroke-opacity:1"
       id="path8479"
       inkscape:connector-curvature="0" /><path
       d="m 717,29.79 -20.43,0 0,-11.9"
       style="fill:none;stroke:#000000;stroke-width:1;stroke-linecap:round;stroke-linejoin:round;stroke-miterlimit:10;stroke-dasharray:none;stroke-opacity:1"
       id="path8481"
       inkscape:connector-curvature="0" /><path
       d="m 709.2,398.53 -7.52,0 0,17.84"
       style="fill:none;stroke:#000000;stroke-width:1;stroke-linecap:round;stroke-linejoin:round;stroke-miterlimit:10;stroke-dasharray:none;stroke-opacity:1"
       id="path8483"
       inkscape:connector-curvature="0" /><path
       d="m 706.66,160.63 -5.75,0 0,23.79"
       style="fill:none;stroke:#000000;stroke-width:1;stroke-linecap:round;stroke-linejoin:round;stroke-miterlimit:10;stroke-dasharray:none;stroke-opacity:1"
       id="path8485"
       inkscape:connector-curvature="0" /><path
       d="m 691.57,350.95 -37.45,0 0,-59.48"
       style="fill:none;stroke:#000000;stroke-width:1;stroke-linecap:round;stroke-linejoin:round;stroke-miterlimit:10;stroke-dasharray:none;stroke-opacity:1"
       id="path8487"
       inkscape:connector-curvature="0" /><path
       d="m 609.26,437.18 -149.9,0 0,-72.85"
       style="fill:none;stroke:#000000;stroke-width:1;stroke-linecap:round;stroke-linejoin:round;stroke-miterlimit:10;stroke-dasharray:none;stroke-opacity:1"
       id="path8489"
       inkscape:connector-curvature="0" /><path
       d="m 717,243.89 -20.28,0 0,11.9"
       style="fill:none;stroke:#000000;stroke-width:1;stroke-linecap:round;stroke-linejoin:round;stroke-miterlimit:10;stroke-dasharray:none;stroke-opacity:1"
       id="path8491"
       inkscape:connector-curvature="0" /><path
       d="m 717,220.11 -15.06,0 0,-11.9"
       style="fill:none;stroke:#000000;stroke-width:1;stroke-linecap:round;stroke-linejoin:round;stroke-miterlimit:10;stroke-dasharray:none;stroke-opacity:1"
       id="path8493"
       inkscape:connector-curvature="0" /><path
       d="m 717,172.53 -10.34,0 0,-11.9"
       style="fill:none;stroke:#000000;stroke-width:1;stroke-linecap:round;stroke-linejoin:round;stroke-miterlimit:10;stroke-dasharray:none;stroke-opacity:1"
       id="path8495"
       inkscape:connector-curvature="0" /><path
       d="m 717,77.37 -322.21,0 0,17.84"
       style="fill:none;stroke:#000000;stroke-width:1;stroke-linecap:round;stroke-linejoin:round;stroke-miterlimit:10;stroke-dasharray:none;stroke-opacity:1"
       id="path8497"
       inkscape:connector-curvature="0" /><path
       d="m 717,410.42 -7.8,0 0,-11.89"
       style="fill:none;stroke:#000000;stroke-width:1;stroke-linecap:round;stroke-linejoin:round;stroke-miterlimit:10;stroke-dasharray:none;stroke-opacity:1"
       id="path8499"
       inkscape:connector-curvature="0" /><path
       d="m 717,6 -20.43,0 0,11.89"
       style="fill:none;stroke:#000000;stroke-width:1;stroke-linecap:round;stroke-linejoin:round;stroke-miterlimit:10;stroke-dasharray:none;stroke-opacity:1"
       id="path8501"
       inkscape:connector-curvature="0" /><path
       d="m 717,148.74 -10.34,0 0,11.89"
       style="fill:none;stroke:#000000;stroke-width:1;stroke-linecap:round;stroke-linejoin:round;stroke-miterlimit:10;stroke-dasharray:none;stroke-opacity:1"
       id="path8503"
       inkscape:connector-curvature="0" /><path
       d="m 638.97,35.74 -348.55,0 0,29.73"
       style="fill:none;stroke:#000000;stroke-width:1;stroke-linecap:round;stroke-linejoin:round;stroke-miterlimit:10;stroke-dasharray:none;stroke-opacity:1"
       id="path8505"
       inkscape:connector-curvature="0" /><path
       d="m 717,196.32 -15.06,0 0,11.89"
       style="fill:none;stroke:#000000;stroke-width:1;stroke-linecap:round;stroke-linejoin:round;stroke-miterlimit:10;stroke-dasharray:none;stroke-opacity:1"
       id="path8507"
       inkscape:connector-curvature="0" /><path
       d="m 696.57,17.89 -57.6,0 0,17.85"
       style="fill:none;stroke:#000000;stroke-width:1;stroke-linecap:round;stroke-linejoin:round;stroke-miterlimit:10;stroke-dasharray:none;stroke-opacity:1"
       id="path8509"
       inkscape:connector-curvature="0" /><path
       d="m 717,458 -107.74,0 0,-20.82"
       style="fill:none;stroke:#000000;stroke-width:1;stroke-linecap:round;stroke-linejoin:round;stroke-miterlimit:10;stroke-dasharray:none;stroke-opacity:1"
       id="path8511"
       inkscape:connector-curvature="0" /><path
       d="m 717,124.95 -26.63,0 0,-11.9"
       style="fill:none;stroke:#000000;stroke-width:1;stroke-linecap:round;stroke-linejoin:round;stroke-miterlimit:10;stroke-dasharray:none;stroke-opacity:1"
       id="path8513"
       inkscape:connector-curvature="0" /><path
       d="m 290.42,65.47 -277.38,0 0,149.43"
       style="fill:none;stroke:#000000;stroke-width:1;stroke-linecap:round;stroke-linejoin:round;stroke-miterlimit:10;stroke-dasharray:none;stroke-opacity:1"
       id="path8515"
       inkscape:connector-curvature="0" /><path
       d="m 717,267.68 -20.28,0 0,-11.89"
       style="fill:none;stroke:#000000;stroke-width:1;stroke-linecap:round;stroke-linejoin:round;stroke-miterlimit:10;stroke-dasharray:none;stroke-opacity:1"
       id="path8517"
       inkscape:connector-curvature="0" /><path
       d="m 654.12,291.47 -194.76,0 0,72.86"
       style="fill:none;stroke:#000000;stroke-width:1;stroke-linecap:round;stroke-linejoin:round;stroke-miterlimit:10;stroke-dasharray:none;stroke-opacity:1"
       id="path8519"
       inkscape:connector-curvature="0" /><path
       d="m 394.79,95.21 -104.37,0 0,-29.74"
       style="fill:none;stroke:#000000;stroke-width:1;stroke-linecap:round;stroke-linejoin:round;stroke-miterlimit:10;stroke-dasharray:none;stroke-opacity:1"
       id="path8521"
       inkscape:connector-curvature="0" /></g></svg>